<?xml version="1.0" encoding="iso-8859-1"?>
<!-- Generator: Adobe Illustrator 19.0.0, SVG Export Plug-In . SVG Version: 6.00 Build 0)  -->
<svg version="1.1" id="Capa_1" xmlns="http://www.w3.org/2000/svg" xmlns:xlink="http://www.w3.org/1999/xlink" x="0px" y="0px"
	 viewBox="0 0 512 512" style="enable-background:new 0 0 512 512;" xml:space="preserve">
<g>
	<g>
		<path d="M412.976,221.951c-9.248,0-18.202,1.278-26.699,3.66L341.669,112h45.646c5.764,0,10.903,3.659,12.79,9.105
			c1.452,4.191,0.81,8.667-1.763,12.281c-2.572,3.614-6.592,5.686-11.027,5.686h-3.356c-5.523,0-10,4.477-10,10
			c0,5.523,4.477,10,10,10h3.356c10.828,0,21.041-5.266,27.321-14.087c6.279-8.821,7.912-20.195,4.368-30.426
			C414.329,101.065,401.595,92,387.315,92H327c-3.307,0-6.4,1.635-8.263,4.367c-1.863,2.732-2.254,6.209-1.045,9.288l27.136,69.113
			h-99.491l-12.452-29.349c-1.502-3.829-5.196-6.347-9.309-6.347h-50.384c-9.216,0-17.817,4.546-23.009,12.16
			s-6.281,17.282-2.915,25.86c4.213,10.738,14.389,17.676,25.924,17.676h41.151l-20.722,35.892
			c-12.395-5.593-26.138-8.709-40.596-8.709c-51.227,0-93.493,39.101-98.522,89.024H33.065c-5.523,0-10,4.477-10,10s4.477,10,10,10
			h21.437c2.834,28.133,17.495,52.826,38.918,69.024H49c-5.523,0-10,4.477-10,10s4.477,10,10,10h104.024
			c51.227,0,93.493-39.101,98.522-89.024h18.008c4.245,13.308,16.724,22.976,31.421,22.976c6.245,0,12.09-1.745,17.074-4.774
			c6.099,20.493,18.664,38.226,35.323,50.823h-52.396c-5.523,0-10,4.477-10,10s4.477,10,10,10h112
			C467.578,420,512,375.578,512,320.976S467.578,221.951,412.976,221.951z M173.192,174.768c-3.251,0-6.119-1.955-7.306-4.98
			c-0.963-2.454-0.664-5.111,0.822-7.289c1.485-2.178,3.849-3.427,6.484-3.427h43.565l6.16,15.696H173.192z M153.024,400
			C109.45,400,74,364.55,74,320.976s35.45-79.024,79.024-79.024c10.818,0,21.133,2.189,30.532,6.141l-39.192,67.883
			c-1.787,3.094-1.787,6.906,0,10c1.786,3.094,5.087,5,8.66,5h39.444c-4.469,17.617-20.457,30.691-39.444,30.691
			c-5.523,0-10,4.477-10,10s4.477,10,10,10c30.058,0,55.069-21.969,59.853-50.691h18.517C226.46,369.843,193.209,400,153.024,400z
			 M170.345,310.976l30.512-52.848c16.433,12.537,27.81,31.359,30.537,52.848H170.345z M251.546,310.976
			c-2.909-28.873-18.275-54.121-40.624-70.283l23.565-40.815l48.57,111.098H251.546z M300.976,333.951
			c-3.135,0-6.013-1.118-8.259-2.976h5.626c3.375,0,6.521-1.702,8.368-4.525c1.848-2.824,2.146-6.389,0.794-9.48l-3.792-8.673
			c5.843,1.261,10.238,6.464,10.238,12.679C313.951,328.13,308.13,333.951,300.976,333.951z M300.976,288
			c-2.004,0-3.866,0.596-5.431,1.611l-41.464-94.843h98.599l14.988,38.173c-23.72,12.257-41.877,33.823-49.618,59.833
			C313.067,289.746,307.221,288,300.976,288z M412.976,400c-43.574,0-79.024-35.45-79.024-79.024
			c0-29.829,16.616-55.844,41.075-69.293l28.641,72.948c1.547,3.941,5.318,6.348,9.311,6.348c1.216,0,2.452-0.224,3.652-0.695
			c5.141-2.018,7.672-7.822,5.653-12.963l-28.649-72.967c6.192-1.564,12.67-2.403,19.341-2.403c43.574,0,79.024,35.45,79.024,79.024
			C492,364.549,456.55,400,412.976,400z"/>
	</g>
</g>
<g>
	<g>
		<path d="M17.07,402.93C15.21,401.07,12.63,400,10,400s-5.21,1.07-7.07,2.93S0,407.37,0,410s1.07,5.21,2.93,7.07
			C4.79,418.93,7.37,420,10,420s5.21-1.07,7.07-2.93S20,412.63,20,410S18.93,404.79,17.07,402.93z"/>
	</g>
</g>
<g>
	<g>
		<path d="M126.995,174.768h-46.31c-5.523,0-10,4.477-10,10s4.477,10,10,10h46.31c5.523,0,10-4.477,10-10
			S132.518,174.768,126.995,174.768z"/>
	</g>
</g>
<g>
	<g>
		<path d="M41.315,174.768H30.333c-5.523,0-10,4.477-10,10s4.478,10,10,10h10.982c5.523,0,10-4.477,10-10
			S46.838,174.768,41.315,174.768z"/>
	</g>
</g>
<g>
	<g>
		<path d="M75.168,219H10c-5.523,0-10,4.477-10,10s4.477,10,10,10h65.168c5.523,0,10-4.477,10-10S80.691,219,75.168,219z"/>
	</g>
</g>
<g>
	<g>
		<path d="M458.559,345.318c-4.274-3.498-10.574-2.868-14.072,1.405c-7.771,9.497-19.257,14.943-31.511,14.943
			c-5.523,0-10,4.477-10,10s4.477,10,10,10c18.276,0,35.402-8.119,46.988-22.276C463.462,355.116,462.833,348.816,458.559,345.318z"
			/>
	</g>
</g>
<g>
	<g>
		<path d="M463.667,310.976c-5.523,0-10,4.477-10,10v0.17c-0.035,5.523,4.415,10.028,9.937,10.063c0.021,0,0.043,0,0.064,0
			c5.493,0,9.964-4.436,9.999-9.937v-0.296C473.667,315.453,469.189,310.976,463.667,310.976z"/>
	</g>
</g>
<g>
</g>
<g>
</g>
<g>
</g>
<g>
</g>
<g>
</g>
<g>
</g>
<g>
</g>
<g>
</g>
<g>
</g>
<g>
</g>
<g>
</g>
<g>
</g>
<g>
</g>
<g>
</g>
<g>
</g>
</svg>
